<?xml version="1.0" encoding="UTF-8"?>
<svg id="Layer_1" xmlns="http://www.w3.org/2000/svg" version="1.1" viewBox="0 0 484.6 234.8">
  <!-- Generator: Adobe Illustrator 29.2.1, SVG Export Plug-In . SVG Version: 2.1.0 Build 116)  -->
  <defs>
    <style>
      .st0 {
        fill: #020202;
      }
    </style>
  </defs>
  <path class="st0" d="M121.5,215.4c-.4,2.8-.4,14.2-2.2,15.4-1.1.7-14.7,1.2-16.9,1.1-35.4-1.3-68.7-21.3-86-52C-23.4,109,29.4,23.6,109.5,26.4l-.8,15C46.3,39.1,1.2,101.6,23.7,160.6c14.9,39,56.7,62.4,97.9,54.8Z"/>
  <path class="st0" d="M135.7,57.2l-1.4,15.7c-4.9-1.4-9.4-3.6-14.4-4.7-45.8-10.4-85.6,30-75,75.7,5.6,24,26.1,42.8,50.3,46.8l-1.5,15c-28.1-4.2-52.4-24.5-61.5-51.3C13,97.4,62,41.6,120.8,53c5.1,1,9.9,3,14.9,4.2Z"/>
  <path class="st0" d="M127.9,83.4c-9.7-1.3-22.2,1-32.2,0-.2.4-1.1.9-1.1,1.1v63.7c0,0,1,1.1,1.1,1.1h30c2,0,7.8-2,9.9-2.9,27.8-11.3,23.3-59-7.6-63.1ZM130.8,135c-1.4.6-6.3,2.3-7.4,2.3h-15c0,0-1.1-1-1.1-1.1v-40.9h19.1c.7,0,5.2,2.2,6.2,2.8,12.4,7.9,12.1,30.6-1.8,36.8Z"/>
  <path class="st0" d="M208.5,73.6h-15.4c-15.8-38.6-56.3-62.4-97.9-54.8l.8-14.9c48.6-8.5,98,23,112.4,69.7Z"/>
  <path class="st0" d="M264.4,83.4h-36.4v66h12.8v-19.5h22.9c10.2,0,19.8-13.2,19.9-22.9.1-9.7-8.8-23.6-19.2-23.6ZM267.5,115.4c-.7.7-5.4,3.2-6.1,3.2h-20.2c0,0-1.1-1-1.1-1.1v-22.1c6.6.9,16.7-1.2,22.9,0,8,1.6,10.4,14.2,4.6,20Z"/>
  <path class="st0" d="M182.3,137.4h33v12h-51.8v-6.3c10-16.4,22.5-31.5,33-47.7h-31.1c0,0-1.1-1-1.1-1.1v-10.9h51l-.4,6.7c-9.1,15.1-23.1,29.7-31.7,44.8-.5.8-1.1,1.3-.9,2.5Z"/>
  <path class="st0" d="M188.3,173c-20.1,23-51.1,36.5-81.8,34.8l1.6-14.9c27.2,1,53.9-11.2,70.8-32.3h17.6c1.2,1.2-7,11-8.2,12.4Z"/>
  <path class="st0" d="M163,162.8c-22.1,20.2-54.2,25.7-81.9,14.3l.7-15.7c5.2,1.1,9.7,3.8,15,4.9,11.6,2.4,22.4,2,33.8-1.5,1.8-.6,8.8-4.1,9.4-4.1h24.4c.3,1.5-.5,1.4-1.3,2.1Z"/>
  <path class="st0" d="M181.5,73.6h-17.2c-8.2-16.2-25.2-26.5-42.7-30.1-.3-.6.4-11.5.7-13,.1-.8.3-1.6,1.2-1.8,1-.2,10.7,2.5,12.5,3.1,19.7,6.5,37.5,22.7,45.6,41.8Z"/>
  <path class="st0" d="M306.9,144.4c-4.8-2.8-8.4-6.7-10.8-11.7-2.4-5-3.7-10.8-3.7-17.4s1.5-13.4,4.5-18.4c3-4.9,6.9-8.6,11.8-11,4.9-2.4,10.4-3.6,16.4-3.6s12.7,1.4,17.5,4.2c4.8,2.8,8.4,6.7,10.8,11.7,2.4,5,3.6,10.8,3.6,17.4s-1.5,13.4-4.4,18.4c-2.9,4.9-6.9,8.6-11.8,11s-10.4,3.6-16.4,3.6-12.7-1.4-17.5-4.2ZM334.3,134.6c2.7-1.7,4.8-4.2,6.1-7.4,1.4-3.2,2-7,2-11.4,0-6.9-1.5-12.3-4.5-16.2-3-3.9-7.3-5.8-13-5.8s-10.5,1.9-13.6,5.7c-3.1,3.8-4.7,9.1-4.7,15.7s1.5,12.3,4.5,16.2c3,3.9,7.3,5.8,13.1,5.8s7.2-.9,10-2.6Z"/>
  <path class="st0" d="M362.5,140.9l6.3-9.7c6.1,3.9,12.1,5.8,18,5.8s6.7-.6,8.9-1.8c2.1-1.2,3.2-2.9,3.2-5.3s-.3-2.6-1-3.6c-.7-.9-1.9-1.9-3.7-2.7-1.8-.9-4.4-2-7.9-3.4l-2.3-.9c-4.2-1.6-7.6-3.2-10.2-4.7-2.6-1.5-4.6-3.4-6.1-5.8-1.5-2.4-2.3-5.3-2.3-8.9s1.2-7.3,3.5-9.9c2.3-2.6,5.3-4.6,8.9-5.8,3.6-1.2,7.5-1.9,11.6-1.9s7.5.6,11.4,1.8c3.9,1.2,7.7,3,11.2,5.3l-6.4,9.6c-3.2-1.9-5.9-3.3-8.4-4.1-2.4-.8-5.1-1.3-7.9-1.3s-5.5.5-7.1,1.6c-1.6,1-2.4,2.5-2.4,4.2s.3,2.1,1,3,1.8,1.8,3.5,2.6,4.2,1.9,7.4,3.1l2.2.8c4.2,1.6,7.6,3,10.2,4.4,2.6,1.4,4.8,3.3,6.5,5.9,1.8,2.5,2.7,5.8,2.7,9.9s-1.1,7.8-3.4,10.7c-2.2,2.9-5.3,5.1-9.2,6.5-3.9,1.4-8.2,2.2-13.1,2.2-9.9,0-18.3-2.5-25.3-7.6Z"/>
  <path class="st0" d="M467.7,83.1h13v64h-13v-26h-30v26h-14v-64h14v26h30v-26Z"/>
</svg>