<?xml version="1.0" encoding="UTF-8"?>
<svg id="Layer_1" xmlns="http://www.w3.org/2000/svg" version="1.1" viewBox="0 0 969.7 325.6">
  <!-- Generator: Adobe Illustrator 29.2.1, SVG Export Plug-In . SVG Version: 2.1.0 Build 116)  -->
  <defs>
    <style>
      .st0, .st1 {
        fill: #fff;
      }

      .st1 {
        font-family: ROGFonts-Regular, 'ROG Fonts';
        font-size: 216.3px;
      }
    </style>
  </defs>
  <path class="st0" d="M112.6,270.7c1.5,1,4.3,3,4.4,2.7,1.8-2.1,4.5-4.5,4.6-7,.5-11.5.2-23,.2-34.5,0-15,0-29.9,0-45.3h25.9c0,29.9,0,59.8.2,90.2.2.4.2.5.2.5-.6,1.3-.9,2.9-1.9,3.8-9.8,10-19.7,19.9-30.3,30.6-6.9-7.1-13-14.6-20.3-20.7-8.7-7.2-11.4-15.5-11.2-26.7.8-36.5.3-73,.3-109.5,0-1.6,0-3.3,0-5.4h37c0-2.5,0-4.4,0-6.4,0-27-.1-54,0-81,0-5.1-.8-9.2-5.7-11.6-4.1,2.3-5.7,5.8-5.6,10.9.3,23.7.1,47.3.1,71v5.7h-25.6c0-1.3-.3-2.7-.3-4.1,0-28.3,0-56.7.1-85,0-2.4,1.4-5.4,3.1-7.2,9-9.5,18.4-18.8,28.4-28.9,7.7,7.9,14.6,16,22.5,22.9,6.9,6,9.1,12.5,9,21.6-.5,37.6-.2,75.3-.2,113,0,1.5,0,2.9,0,4.8h-36.9c0,30.9,0,61.5,0,92.8.6,1.4,1.2,2.1,1.8,2.8Z"/>
  <path class="st0" d="M20.7,118.4c6-13.1,14.1-24,24.2-33.7,9.5-9.1,18.5-18.6,28.5-28.7v212.5c-18.6-18.5-38.8-35.1-50.9-58.3-15.6-29.9-15.4-60.7-1.8-91.8M42.8,132c-9.3,23.7-7.8,46.8,4.8,69.1v-77.5c-.2,0-.5-.1-.7-.2-1.3,2.6-2.6,5.3-4.1,8.6Z"/>
  <path class="st0" d="M158.7,60.5c0-1.1.1-2.2,0-3.6-.2-.4-.2-.4-.2-.4,2.5,2.2,4.9,4.3,7.8,6.9,1.1,1,1.8,1.5,2.6,2.1,6.8,7,13.6,14.1,20.5,21,22.3,22.2,33,49,32.3,80.4,0,1.3-.1,2.7-.3,4-.2,1.5-.5,2.9-.8,4.7h-35.8v24.2c0,13.3,0,26.6,0,39.9,0,1.9-.9,4.2-2.2,5.6-7.5,7.8-15.2,15.3-23.2,22.8-.3-.2-.6-.5-.6-.5,0-1.1,0-2.1.2-4.1,0-65.2,0-129.6,0-194,0-1.3-.1-2.7-.2-4,0-.8.1-1.5.2-3,0-1.1-.1-1.6-.2-2M184.7,143.9v5.4h10.6c-3.1-9.1-6-17.5-8.8-26-.6.1-1.2.3-1.8.4,0,6.4,0,12.8,0,20.1Z"/>
  <path class="st0" d="M120.4,185.9c0,0,0,0,0,0Z"/>
  <path class="st0" d="M154.4,170c0,0,0,0,0,0Z"/>
  <path class="st0" d="M117.3,267c0,0,0,0,0,0Z"/>
  <path class="st0" d="M158.3,56.5c.2-.1.2,0,.2,0-.2.2-.4.3-.6.5,0-.1.1-.2.4-.4Z"/>
  <path class="st0" d="M156.8,268.5c-.1-.1-.2-.3-.4-.4,0,0,.2,0,.3.3,0,.1,0,.1,0,.2Z"/>
  <text class="st1" transform="translate(253.6 234.7) scale(.6 1)"><tspan x="0" y="0">DZPOSH</tspan></text>
</svg>